<svg xmlns="http://www.w3.org/2000/svg" viewBox="0 0 35.9 40"><defs><style>.cls-1{fill:#430098;}</style></defs><g id="Layer_2" data-name="Layer 2"><g id="Layer_1-2" data-name="Layer 1"><path class="cls-1" d="M32.3,0H3.6A3.59,3.59,0,0,0,0,3.6V36.4A3.59,3.59,0,0,0,3.6,40H32.3a3.59,3.59,0,0,0,3.6-3.6V3.6A3.59,3.59,0,0,0,32.3,0Zm1.6,36.4A1.58,1.58,0,0,1,32.3,38H3.6A1.58,1.58,0,0,1,2,36.4V3.6A1.58,1.58,0,0,1,3.6,2H32.3a1.58,1.58,0,0,1,1.6,1.6ZM9,34l4.5-4L9,26ZM25.2,17.8A6.54,6.54,0,0,0,20.4,16a23.84,23.84,0,0,0-7.5,1.4V6h-4V23.3L11.7,22a24.77,24.77,0,0,1,8.6-2.1c2,0,2.5,1.1,2.5,2.1V34h4V22A5.36,5.36,0,0,0,25.2,17.8Zm-5.3-5.3h4a12.06,12.06,0,0,0,3-6.5h-4A14.76,14.76,0,0,1,19.9,12.5Z"/></g></g></svg>